PathFileType	4	(X/Y/Z)	/Users/niels/Desktop/University/Third Semester/Perception and Action/Exam/Gymnastics Motion Tracking/Code for Gym Tracking/Analyzed Data/Webcam_Backflip/id17_1_trajectory_Sports2D/id17_1_trajectory_Sports2D_px_person00.trc
DataRate	CameraRate	NumFrames	NumMarkers	Units	OrigDataRate	OrigDataStartFrame	OrigNumFrames
29.702970297029704	29.702970297029704	7	22	m	29.702970297029704	0	101
Frame#	Time	Hip			RHip			RKnee			RAnkle			RBigToe			RSmallToe			RHeel			LHip			LKnee			LAnkle			LBigToe			LSmallToe			LHeel			Neck			Head			Nose			RShoulder			RElbow			RWrist			LShoulder			LElbow			LWrist		
		X1	Y1	Z1	X2	Y2	Z2	X3	Y3	Z3	X4	Y4	Z4	X5	Y5	Z5	X6	Y6	Z6	X7	Y7	Z7	X8	Y8	Z8	X9	Y9	Z9	X10	Y10	Z10	X11	Y11	Z11	X12	Y12	Z12	X13	Y13	Z13	X14	Y14	Z14	X15	Y15	Z15	X16	Y16	Z16	X17	Y17	Z17	X18	Y18	Z18	X19	Y19	Z19	X20	Y20	Z20	X21	Y21	Z21	X22	Y22	Z22
0	0.0	0.9502019305792755	-1.0834794878768907	0.0	0.7310959114118186	-1.0373481583194726	0.0	0.7232532193570903	-0.9896662584879156	0.0	0.8467111243574856	-0.4078668510747961	0.0	0.08486169402404693	-0.999962768502107	0.0	0.9531796874999489	-1.1330214843736262	0.0	0.9194241947736385	-1.076756103707868	0.0	1.1453452620902567	-1.0189307321954202	0.0	1.0986514186362402	-1.0519687649599898	0.0	1.253185518310996	-1.0522817039160937	0.0	1.053709716798427	-1.0983365478564042	0.0	1.0900341796873145	-1.0957419433646647	0.0	0.07434082818069677	-0.9856215830656546	0.0	0.9560505065927417	-0.861402376784543	0.0	0.9698025022135315	-0.38362487153407154	0.0	0.9631890608981645	-0.6690073811675636	0.0	0.6375321847357484	-0.9410405845796863	0.0	0.5048624213939339	-1.073801980610363	0.0	-0.05635089433382014	-1.0423275474492626	0.0	1.2779992076574218	-0.9045197237382444	0.0	1.3974755718182816	-1.0771618941019834	0.0	1.6250681141580374	-1.0825497839799787	0.0
1	0.033666666666666664	0.9475886895370561	-1.0758532807967298	0.0	0.7443573614357283	-1.0409673234033339	0.0	0.7166894657877487	-0.9941173898748942	0.0	0.8416061064094463	-0.44180410561784583	0.0	0.08486169382212017	-0.9999627684702869	0.0	0.9531796874999711	-1.1330214843735682	0.0	0.9194241942071399	-1.0767561035083764	0.0	1.1368936765165625	-1.0264051759244535	0.0	1.0986474287344312	-1.0519696668172078	0.0	1.2526257972161035	-1.052239645391702	0.0	1.0537097168037897	-1.0983365478597604	0.0	1.09003417969071	-1.0957419433679945	0.0	0.0743408330876003	-0.9856215836681645	0.0	0.9556255211261653	-0.83586098117161	0.0	0.9741128005646555	-0.3480466185370861	0.0	0.9669305505811613	-0.644933557410881	0.0	0.6331581337631139	-0.9130143389834805	0.0	0.4911141009057707	-1.0717769182695556	0.0	-0.002929343584355157	-1.0441343890086972	0.0	1.2814759563221612	-0.8827723362984676	0.0	1.3982176954766905	-1.0750132319255035	0.0	1.5932196697926158	-1.0806689324792467	0.0
2	0.06733333333333333	0.9458228316880816	-1.0691064809123458	0.0	0.7570167316847924	-1.0447325245840904	0.0	0.7101199544707895	-0.9985390312024589	0.0	0.8373514911196013	-0.47014592095104357	0.0	0.08486169366880678	-0.9999627684483705	0.0	0.953179687500044	-1.1330214843743633	0.0	0.9194241929190001	-1.0767561030298516	0.0	1.1286722277747612	-1.0337855798203432	0.0	1.0986435291897678	-1.0519712522776266	0.0	1.2519932162903904	-1.0521943164638106	0.0	1.0537097168122609	-1.098336547862532	0.0	1.0900341796968374	-1.0957419433704267	0.0	0.07434083662419504	-0.9856215840577848	0.0	0.9560846000455864	-0.807412935063951	0.0	0.9782334618315842	-0.31050068789251967	0.0	0.9705554974547785	-0.6177168853163753	0.0	0.6307047258102577	-0.8820482501500455	0.0	0.47701881787257755	-1.0702065460530454	0.0	0.05053580531080269	-1.0458814858336767	0.0	1.2845476313844353	-0.8581187448313163	0.0	1.3991176341497549	-1.0738122363667026	0.0	1.5614052376560488	-1.078719566526811	0.0
3	0.10099999999999999	0.9454244264705929	-1.0641203714968441	0.0	0.7683384896606277	-1.0486295063378352	0.0	0.7035076466798446	-1.00293810719307	0.0	0.8346531967674868	-0.48935857927008625	0.0	0.0848616937334687	-0.9999627684647711	0.0	0.9531796875001919	-1.1330214843767055	0.0	0.9194241907246768	-1.076756102188157	0.0	1.1210339681198422	-1.0408134572925032	0.0	1.0986423974070612	-1.051973457436551	0.0	1.2515976108222204	-1.052170693598894	0.0	1.0537097168227252	-1.0983365478620757	0.0	1.0900341797055775	-1.095741943369095	0.0	0.07434083452961814	-0.9856215836770169	0.0	0.9581320802398388	-0.7738473976296643	0.0	0.982231774465108	-0.2696759403019589	0.0	0.9742785718390998	-0.5845724067103366	0.0	0.631797767653073	-0.8459687257441869	0.0	0.4628718993489861	-1.069183608470736	0.0	0.10439263150835015	-1.0476211899186354	0.0	1.287254774691825	-0.8283220816847059	0.0	1.4003469660859031	-1.0736422610161171	0.0	1.5298333408822475	-1.0767342702631688	0.0
4	0.13466666666666666	0.9463542302011706	-1.0616686329980742	0.0	0.7773997545231244	-1.0525038902633985	0.0	0.6968194784995612	-1.007326638099707	0.0	0.8339135289871211	-0.49887862358199675	0.0	0.08486169428390436	-0.9999627685632734	0.0	0.9531796875004247	-1.1330214843812643	0.0	0.9194241877694342	-1.0767561010168543	0.0	1.1145620578873212	-1.0471117512363133	0.0	1.0986487102195803	-1.0519757224307786	0.0	1.2520346527080288	-1.0522150937513206	0.0	1.053709716831178	-1.0983365478540985	0.0	1.0900341797149338	-1.095741943359515	0.0	0.07434082016277624	-0.9856215816788888	0.0	0.9621403156999722	-0.7343115179617914	0.0	0.9863241328292801	-0.22552910494376877	0.0	0.978484213640396	-0.5439272490094906	0.0	0.6367787393746966	-0.8044283269135472	0.0	0.4498657324224374	-1.068597621777341	0.0	0.15899451828091027	-1.049476664791402	0.0	1.2901464052361518	-0.7925560055876939	0.0	1.4018609294390358	-1.0737909075289358	0.0	1.498987530610929	-1.0748230558798906	0.0
5	0.16833333333333333	0.9480460434299843	-1.0617212989289744	0.0	0.7833104138766871	-1.0559532781559884	0.0	0.6900387497049517	-1.0117312454290035	0.0	0.8353064670986646	-0.5003252681824417	0.0	0.08486169565132953	-0.9999627687962802	0.0	0.9531796875007111	-1.1330214843882132	0.0	0.9194241849025329	-1.076756099812688	0.0	1.1100365249397433	-1.0521949967972917	0.0	1.0986689310820261	-1.0519766518974232	0.0	1.254203093495493	-1.0523952562647243	0.0	1.0537097168292329	-1.0983365478331162	0.0	1.090034179719667	-1.095741943336216	0.0	0.07434078545737943	-0.9856215770687962	0.0	0.968356497058779	-0.6889826028355905	0.0	0.9906531431994652	-0.1794944179817785	0.0	0.9833031474777464	-0.49540407072909437	0.0	0.6444713808851529	-0.7587942343687675	0.0	0.4402277325798934	-1.0675915442710424	0.0	0.2145979647298668	-1.0516665116203157	0.0	1.2942492124749518	-0.7513096617203365	0.0	1.4035255211206878	-1.0726765460320722	0.0	1.469630527121138	-1.0732076576954719	0.0
6	0.20199999999999999	0.9497945356612764	-1.0629606721888787	0.0	0.785675891818788	-1.0582558197683105	0.0	0.6831894487130413	-1.0162032298704724	0.0	0.8388197491554692	-0.4961888476938972	0.0	0.08486169810409294	-0.9999627692028193	0.0	0.9531796875009404	-1.1330214843964097	0.0	0.9194241841235392	-1.0767560993159948	0.0	1.1081868099887942	-1.0555468378731454	0.0	1.0987096267553913	-1.0519737385560486	0.0	1.2591484320421227	-1.0527865388770674	0.0	1.0537097168033707	-1.0983365477943443	0.0	1.0900341797101079	-1.0957419432949123	0.0	0.07434072416704018	-0.9856215691446073	0.0	0.9769622389285622	-0.6385451582691439	0.0	0.9951933443733997	-0.13441666238167976	0.0	0.9884331052944471	-0.43947225074079965	0.0	0.6533169523023266	-0.7109818156735415	0.0	0.43664999165110974	-1.0639427544383337	0.0	0.2711375389356113	-1.0545005616074083	0.0	1.3006365155648538	-0.7058118533914232	0.0	1.4054896439676035	-1.0677714387557715	0.0	1.4426556875786647	-1.0722329089478493	0.0
